<?xml version="1.0" encoding="utf-8"?>
<!-- Generator: Adobe Illustrator 27.7.0, SVG Export Plug-In . SVG Version: 6.00 Build 0)  -->
<svg version="1.1" id="Calque_1" xmlns="http://www.w3.org/2000/svg" xmlns:xlink="http://www.w3.org/1999/xlink" x="0px" y="0px"
	 viewBox="0 0 482.2 84.7" enable-background="new 0 0 482.2 84.7" xml:space="preserve">
<g id="Découpe_modifiée_00000091711797083119391580000005925063808095846316_" display="none">
	<linearGradient id="SVGID_1_" gradientUnits="userSpaceOnUse" x1="187.0661" y1="-48.3731" x2="119.5118" y2="-48.3731">
		<stop  offset="0" style="stop-color:#FFFFFF"/>
		<stop  offset="0.3006" style="stop-color:#FDFADD"/>
		<stop  offset="0.7673" style="stop-color:#FBF4AD"/>
		<stop  offset="1" style="stop-color:#FAF19B"/>
	</linearGradient>
	<path display="inline" fill="url(#SVGID_1_)" stroke="#7E7E7D" stroke-miterlimit="10" d="M170.9-32.2h-35.3
		c-8.9,0-16.1-7.2-16.1-16.1s7.2-16.1,16.1-16.1h35.3c8.9,0,16.1,7.2,16.1,16.1S179.8-32.2,170.9-32.2z"/>
	
		<linearGradient id="SVGID_00000015319996186160359490000001120255135273708948_" gradientUnits="userSpaceOnUse" x1="182.3414" y1="-36.9649" x2="134.5726" y2="-84.7338">
		<stop  offset="0" style="stop-color:#FFFFFF"/>
		<stop  offset="2.882367e-02" style="stop-color:#FAFDFE"/>
		<stop  offset="0.4988" style="stop-color:#ADE1F2"/>
		<stop  offset="0.8339" style="stop-color:#7DCFEB"/>
		<stop  offset="1" style="stop-color:#6BC8E8"/>
	</linearGradient>
	
		<path display="inline" fill="url(#SVGID_00000015319996186160359490000001120255135273708948_)" stroke="#7E7E7D" stroke-miterlimit="10" d="
		M170.9-32.2c-4.1,0-8.3-1.6-11.4-4.7l-25-25c-6.3-6.3-6.3-16.5,0-22.8c6.3-6.3,16.5-6.3,22.8,0l25,25c6.3,6.3,6.3,16.5,0,22.8
		C179.2-33.8,175.1-32.2,170.9-32.2z"/>
	
		<linearGradient id="SVGID_00000028327514627315198090000014001513232205630614_" gradientUnits="userSpaceOnUse" x1="170.933" y1="-32.2397" x2="170.933" y2="-99.7952">
		<stop  offset="0" style="stop-color:#FFFFFF"/>
		<stop  offset="0.3557" style="stop-color:#E0D3E7"/>
		<stop  offset="0.7855" style="stop-color:#BFA3CD"/>
		<stop  offset="1" style="stop-color:#B291C3"/>
	</linearGradient>
	
		<path display="inline" fill="url(#SVGID_00000028327514627315198090000014001513232205630614_)" stroke="#7E7E7D" stroke-miterlimit="10" d="
		M170.9-32.2c-8.9,0-16.1-7.2-16.1-16.1v-35.3c0-8.9,7.2-16.1,16.1-16.1s16.1,7.2,16.1,16.1v35.3C187.1-39.5,179.8-32.2,170.9-32.2z
		"/>
	
		<linearGradient id="SVGID_00000144307864117608975840000000069195795698967180_" gradientUnits="userSpaceOnUse" x1="159.5253" y1="-36.9648" x2="207.2944" y2="-84.7339">
		<stop  offset="0" style="stop-color:#FFFFFF"/>
		<stop  offset="0.1786" style="stop-color:#FDEEF1"/>
		<stop  offset="0.7268" style="stop-color:#F6BECB"/>
		<stop  offset="1" style="stop-color:#F4ACBC"/>
	</linearGradient>
	
		<path display="inline" fill="url(#SVGID_00000144307864117608975840000000069195795698967180_)" stroke="#7E7E7D" stroke-miterlimit="10" d="
		M170.9-32.2c-4.1,0-8.3-1.6-11.4-4.7c-6.3-6.3-6.3-16.5,0-22.8l25-25c6.3-6.3,16.5-6.3,22.8,0c6.3,6.3,6.3,16.5,0,22.8l-25,25
		C179.2-33.8,175.1-32.2,170.9-32.2z"/>
	
		<linearGradient id="SVGID_00000169530183943812321990000005180150402305704066_" gradientUnits="userSpaceOnUse" x1="154.7995" y1="-48.3731" x2="222.3551" y2="-48.3731">
		<stop  offset="0" style="stop-color:#FFFFFF"/>
		<stop  offset="0.4283" style="stop-color:#C2E5E1"/>
		<stop  offset="0.8105" style="stop-color:#92D0C9"/>
		<stop  offset="1" style="stop-color:#80C8C0"/>
	</linearGradient>
	
		<path display="inline" fill="url(#SVGID_00000169530183943812321990000005180150402305704066_)" stroke="#7E7E7D" stroke-miterlimit="10" d="
		M206.2-32.2h-35.3c-8.9,0-16.1-7.2-16.1-16.1s7.2-16.1,16.1-16.1h35.3c8.9,0,16.1,7.2,16.1,16.1S215.1-32.2,206.2-32.2z"/>
	<path display="inline" fill="#FFFFFF" stroke="#7E7E7D" stroke-miterlimit="10" d="M206.2-25.2h-35.3h0h-34.7
		c-12.8,0-23.8-10.5-23.8-23.3c0-8.3,4.4-15.5,11-19.6c-1.7-7.5,0.3-15.8,6.2-21.7c4.4-4.4,10.2-6.8,16.4-6.8c1.8,0,3.5,0.2,5.3,0.6
		c4.1-6.6,11.4-11,19.7-11c8.3,0,15.6,4.4,19.7,11c1.4-0.3,113.5-0.5,153.7-0.6c7.8,0,14.2,6.3,14.2,14.1l0.1,43
		c0,7.8-6.3,14.2-14.2,14.2H206.2z"/>
</g>
<g>
	<g>
		
			<linearGradient id="SVGID_00000150075671186735025770000014363628835873113255_" gradientUnits="userSpaceOnUse" x1="79.0986" y1="62.57" x2="2.1464" y2="62.57">
			<stop  offset="0" style="stop-color:#FFFFFF"/>
			<stop  offset="0.3006" style="stop-color:#FDFADD"/>
			<stop  offset="0.7673" style="stop-color:#FBF4AD"/>
			<stop  offset="1" style="stop-color:#FAF19B"/>
		</linearGradient>
		<path fill="url(#SVGID_00000150075671186735025770000014363628835873113255_)" d="M60.7,80.9H20.5c-10.1,0-18.4-8.2-18.4-18.4
			s8.2-18.4,18.4-18.4h40.2c10.1,0,18.4,8.2,18.4,18.4S70.9,80.9,60.7,80.9z"/>
	</g>
	<g>
		
			<linearGradient id="SVGID_00000063635007142495547560000010133316599479737232_" gradientUnits="userSpaceOnUse" x1="73.7167" y1="75.5653" x2="19.3024" y2="21.1509">
			<stop  offset="0" style="stop-color:#FFFFFF"/>
			<stop  offset="2.882367e-02" style="stop-color:#FAFDFE"/>
			<stop  offset="0.4988" style="stop-color:#ADE1F2"/>
			<stop  offset="0.8339" style="stop-color:#7DCFEB"/>
			<stop  offset="1" style="stop-color:#6BC8E8"/>
		</linearGradient>
		<path fill="url(#SVGID_00000063635007142495547560000010133316599479737232_)" d="M60.7,80.9c-4.7,0-9.4-1.8-13-5.4L19.3,47.1
			c-7.2-7.2-7.2-18.8,0-26c7.2-7.2,18.8-7.2,26,0l28.4,28.4c7.2,7.2,7.2,18.8,0,26C70.1,79.2,65.4,80.9,60.7,80.9z"/>
	</g>
	<g>
		
			<linearGradient id="SVGID_00000148628671272651465530000001922518223046293655_" gradientUnits="userSpaceOnUse" x1="60.7211" y1="80.9479" x2="60.7211" y2="3.9942">
			<stop  offset="0" style="stop-color:#FFFFFF"/>
			<stop  offset="0.3557" style="stop-color:#E0D3E7"/>
			<stop  offset="0.7855" style="stop-color:#BFA3CD"/>
			<stop  offset="1" style="stop-color:#B291C3"/>
		</linearGradient>
		<path fill="url(#SVGID_00000148628671272651465530000001922518223046293655_)" d="M60.7,80.9c-10.1,0-18.4-8.2-18.4-18.4V22.4
			C42.3,12.2,50.6,4,60.7,4s18.4,8.2,18.4,18.4v40.2C79.1,72.7,70.9,80.9,60.7,80.9z"/>
	</g>
	<g>
		
			<linearGradient id="SVGID_00000175286165337903510070000015269624463090447784_" gradientUnits="userSpaceOnUse" x1="47.7264" y1="75.5654" x2="102.1411" y2="21.1508">
			<stop  offset="0" style="stop-color:#FFFFFF"/>
			<stop  offset="0.1786" style="stop-color:#FDEEF1"/>
			<stop  offset="0.7268" style="stop-color:#F6BECB"/>
			<stop  offset="1" style="stop-color:#F4ACBC"/>
		</linearGradient>
		<path fill="url(#SVGID_00000175286165337903510070000015269624463090447784_)" d="M60.7,80.9c-4.7,0-9.4-1.8-13-5.4
			c-7.2-7.2-7.2-18.8,0-26l28.4-28.4c7.2-7.2,18.8-7.2,26,0c7.2,7.2,7.2,18.8,0,26L73.7,75.6C70.1,79.2,65.4,80.9,60.7,80.9z"/>
	</g>
	<g>
		
			<linearGradient id="SVGID_00000122703391501424462640000009402286463788835260_" gradientUnits="userSpaceOnUse" x1="42.3432" y1="62.57" x2="119.2969" y2="62.57">
			<stop  offset="0" style="stop-color:#FFFFFF"/>
			<stop  offset="0.4283" style="stop-color:#C2E5E1"/>
			<stop  offset="0.8105" style="stop-color:#92D0C9"/>
			<stop  offset="1" style="stop-color:#80C8C0"/>
		</linearGradient>
		<path fill="url(#SVGID_00000122703391501424462640000009402286463788835260_)" d="M100.9,80.9H60.7c-10.1,0-18.4-8.2-18.4-18.4
			s8.2-18.4,18.4-18.4h40.2c10.1,0,18.4,8.2,18.4,18.4S111.1,80.9,100.9,80.9z"/>
	</g>
	<circle fill="#FFFFFF" cx="60.7" cy="62.6" r="18.4"/>
</g>
<g id="_x3C_Calque_x3E_">
</g>
<g id="Découpe_originale" display="none">
	
		<linearGradient id="SVGID_00000021111515071860254110000012576511633726037690_" gradientUnits="userSpaceOnUse" x1="184.0054" y1="-48.5398" x2="116.4512" y2="-48.5398">
		<stop  offset="0" style="stop-color:#FFFFFF"/>
		<stop  offset="0.3006" style="stop-color:#FDFADD"/>
		<stop  offset="0.7673" style="stop-color:#FBF4AD"/>
		<stop  offset="1" style="stop-color:#FAF19B"/>
	</linearGradient>
	<path display="inline" fill="url(#SVGID_00000021111515071860254110000012576511633726037690_)" d="M167.9-32.4h-35.3
		c-8.9,0-16.1-7.2-16.1-16.1s7.2-16.1,16.1-16.1h35.3c8.9,0,16.1,7.2,16.1,16.1S176.8-32.4,167.9-32.4z"/>
	
		<linearGradient id="SVGID_00000176010032205799205930000002569245115648072086_" gradientUnits="userSpaceOnUse" x1="179.2808" y1="-37.1317" x2="131.512" y2="-84.9005">
		<stop  offset="0" style="stop-color:#FFFFFF"/>
		<stop  offset="2.882367e-02" style="stop-color:#FAFDFE"/>
		<stop  offset="0.4988" style="stop-color:#ADE1F2"/>
		<stop  offset="0.8339" style="stop-color:#7DCFEB"/>
		<stop  offset="1" style="stop-color:#6BC8E8"/>
	</linearGradient>
	<path display="inline" fill="url(#SVGID_00000176010032205799205930000002569245115648072086_)" d="M167.9-32.4
		c-4.1,0-8.3-1.6-11.4-4.7l-25-25c-6.3-6.3-6.3-16.5,0-22.8c6.3-6.3,16.5-6.3,22.8,0l25,25c6.3,6.3,6.3,16.5,0,22.8
		C176.1-34,172-32.4,167.9-32.4z"/>
	
		<linearGradient id="SVGID_00000155835331533382775290000002684399878896522380_" gradientUnits="userSpaceOnUse" x1="167.8723" y1="-32.4064" x2="167.8723" y2="-99.9619">
		<stop  offset="0" style="stop-color:#FFFFFF"/>
		<stop  offset="0.3557" style="stop-color:#E0D3E7"/>
		<stop  offset="0.7855" style="stop-color:#BFA3CD"/>
		<stop  offset="1" style="stop-color:#B291C3"/>
	</linearGradient>
	<path display="inline" fill="url(#SVGID_00000155835331533382775290000002684399878896522380_)" d="M167.9-32.4
		c-8.9,0-16.1-7.2-16.1-16.1v-35.3c0-8.9,7.2-16.1,16.1-16.1S184-92.7,184-83.8v35.3C184-39.6,176.8-32.4,167.9-32.4z"/>
	
		<linearGradient id="SVGID_00000048467486575272643640000004445625017791873440_" gradientUnits="userSpaceOnUse" x1="156.4646" y1="-37.1315" x2="204.2338" y2="-84.9007">
		<stop  offset="0" style="stop-color:#FFFFFF"/>
		<stop  offset="0.1786" style="stop-color:#FDEEF1"/>
		<stop  offset="0.7268" style="stop-color:#F6BECB"/>
		<stop  offset="1" style="stop-color:#F4ACBC"/>
	</linearGradient>
	<path display="inline" fill="url(#SVGID_00000048467486575272643640000004445625017791873440_)" d="M167.9-32.4
		c-4.1,0-8.3-1.6-11.4-4.7c-6.3-6.3-6.3-16.5,0-22.8l25-25c6.3-6.3,16.5-6.3,22.8,0c6.3,6.3,6.3,16.5,0,22.8l-25,25
		C176.1-34,172-32.4,167.9-32.4z"/>
	
		<linearGradient id="SVGID_00000089557709097135323300000006738535264606674612_" gradientUnits="userSpaceOnUse" x1="151.7388" y1="-48.5398" x2="219.2944" y2="-48.5398">
		<stop  offset="0" style="stop-color:#FFFFFF"/>
		<stop  offset="0.4283" style="stop-color:#C2E5E1"/>
		<stop  offset="0.8105" style="stop-color:#92D0C9"/>
		<stop  offset="1" style="stop-color:#80C8C0"/>
	</linearGradient>
	<path display="inline" fill="url(#SVGID_00000089557709097135323300000006738535264606674612_)" d="M203.2-32.4h-35.3
		c-8.9,0-16.1-7.2-16.1-16.1s7.2-16.1,16.1-16.1h35.3c8.9,0,16.1,7.2,16.1,16.1S212.1-32.4,203.2-32.4z"/>
	<path display="inline" fill="#FFFFFF" stroke="#000000" stroke-miterlimit="10" d="M215.4-68.2c0.4-1.7,0.6-3.5,0.6-5.3
		c0-6.2-2.4-12-6.8-16.4c-4.4-4.4-10.2-6.8-16.4-6.8c-1.8,0-3.5,0.2-5.3,0.6c-4.1-6.6-11.4-11-19.7-11c-8.3,0-15.6,4.4-19.7,11
		c-1.7-0.4-3.5-0.6-5.3-0.6c-6.2,0-12,2.4-16.4,6.8c-5.9,5.9-7.9,14.1-6.2,21.7c-6.6,4.1-11,11.4-11,19.7
		c0,12.8,10.4,23.2,23.2,23.2h35.3h0h35.3c12.8,0,23.2-10.4,23.2-23.2C226.4-56.8,222-64.1,215.4-68.2z"/>
	<circle display="inline" fill="#FFFFFF" cx="167.9" cy="-48.5" r="16.1"/>
</g>
<g>
	<g>
		<path fill="#FFFFFF" d="M139.8,39.9h-4.9V21.1h4.9V39.9z"/>
		<path fill="#FFFFFF" d="M147.8,26.2v1.3c0.3-0.5,0.8-0.8,1.6-1.1c0.7-0.3,1.5-0.4,2.2-0.4c1.9,0,3.2,0.5,4.1,1.6
			c0.9,1,1.3,2.5,1.3,4.4v8h-4.7V33c0-1.1-0.2-1.9-0.5-2.3c-0.3-0.5-1-0.7-1.8-0.7c-0.7,0-1.3,0.2-1.9,0.5v9.4h-4.7V26.2H147.8z"/>
		<path fill="#FFFFFF" d="M161.1,26.2v-0.6c0-1.7,0.5-3,1.6-3.9s2.5-1.4,4.2-1.4c1,0,1.8,0.1,2.5,0.2v3.9c-0.5-0.1-1-0.1-1.4-0.1
			c-1.5,0-2.2,0.7-2.2,2h3.6V30h-3.6v9.9h-4.7V30h-2v-3.8H161.1z"/>
		<path fill="#FFFFFF" d="M171,33c0-2,0.7-3.7,2.2-5.1c1.5-1.4,3.3-2,5.4-2c2.2,0,4,0.7,5.5,2c1.5,1.4,2.2,3,2.2,5.1
			c0,2-0.7,3.7-2.2,5.1c-1.5,1.4-3.3,2-5.5,2c-2.2,0-4-0.7-5.4-2C171.8,36.7,171,35,171,33z M176.6,35.2c0.5,0.6,1.2,0.9,2.1,0.9
			c0.9,0,1.6-0.3,2.1-0.9c0.5-0.6,0.8-1.3,0.8-2.2c0-0.9-0.3-1.6-0.8-2.2c-0.5-0.6-1.3-0.9-2.1-0.9c-0.9,0-1.6,0.3-2.1,0.9
			c-0.5,0.6-0.8,1.3-0.8,2.2C175.8,33.9,176,34.7,176.6,35.2z"/>
		<path fill="#FFFFFF" d="M188.9,26.2h4.4v1.4c0.3-0.5,0.7-0.9,1.3-1.1c0.6-0.3,1.2-0.4,1.9-0.4c0.5,0,1,0.1,1.5,0.2v4.2
			c-0.6-0.1-1.2-0.1-1.8-0.1c-1.1,0-1.9,0.1-2.6,0.4v9h-4.7V26.2z"/>
		<path fill="#FFFFFF" d="M204.5,26.2v1.3c0.3-0.5,0.8-0.8,1.6-1.1s1.5-0.4,2.2-0.4c2,0,3.4,0.6,4.3,1.8c0.3-0.5,0.9-1,1.7-1.3
			c0.8-0.3,1.6-0.5,2.4-0.5c1.9,0,3.4,0.5,4.5,1.6c1.1,1.1,1.6,2.5,1.6,4.3v8h-4.7V33c0-1.1-0.2-1.9-0.5-2.3c-0.3-0.5-1-0.7-1.8-0.7
			c-0.7,0-1.4,0.2-2,0.5c0.1,0.4,0.1,0.9,0.1,1.4v8h-4.7V33c0-1.1-0.2-1.9-0.5-2.3c-0.3-0.5-1-0.7-1.8-0.7c-0.7,0-1.3,0.2-1.9,0.5
			v9.4h-4.7V26.2H204.5z"/>
		<path fill="#FFFFFF" d="M227.1,28c1.2-1.3,2.8-2,4.8-2c1.7,0,2.9,0.4,3.6,1.3v-1.1h4.4v13.6h-4.4v-1.1c-0.7,0.9-1.9,1.3-3.6,1.3
			c-2,0-3.6-0.7-4.8-2c-1.2-1.4-1.8-3-1.8-5.1C225.2,31,225.8,29.3,227.1,28z M230.8,35.2c0.5,0.6,1.2,0.9,2.1,0.9
			c0.8,0,1.6-0.2,2.4-0.7v-4.7c-0.7-0.5-1.6-0.7-2.4-0.7c-0.9,0-1.6,0.3-2.1,0.9c-0.5,0.6-0.8,1.3-0.8,2.2
			C230,33.9,230.3,34.7,230.8,35.2z"/>
		<path fill="#FFFFFF" d="M244.2,26.2v-3.4h4.7v3.4h3.6V30h-3.6v3.8c0,0.8,0.2,1.4,0.6,1.7c0.4,0.3,0.9,0.5,1.7,0.5
			c0.4,0,0.9,0,1.4-0.1v3.9c-0.7,0.1-1.6,0.2-2.5,0.2c-1.7,0-3.1-0.4-4.2-1.2c-1.1-0.8-1.6-2.1-1.6-3.8v-5h-2v-3.8H244.2z"/>
		<path fill="#FFFFFF" d="M255,22.1c0-0.7,0.3-1.3,0.8-1.8c0.5-0.5,1.2-0.8,1.9-0.8c0.7,0,1.4,0.3,1.9,0.8s0.8,1.1,0.8,1.8
			s-0.3,1.3-0.8,1.8c-0.5,0.5-1.2,0.8-1.9,0.8c-0.7,0-1.4-0.3-1.9-0.8C255.2,23.4,255,22.8,255,22.1z M255.3,39.9V26.2h4.7v13.6
			H255.3z"/>
		<path fill="#FFFFFF" d="M264.4,28c1.2-1.3,2.8-2,4.8-2c1.7,0,2.9,0.4,3.6,1.3v-1.1h4.4v19.2h-4.7v-6.4c-0.8,0.7-1.9,1-3.4,1
			c-2,0-3.6-0.7-4.8-2c-1.2-1.4-1.8-3-1.8-5.1C262.6,31,263.2,29.3,264.4,28z M268.1,35.2c0.5,0.6,1.2,0.9,2.1,0.9
			c0.9,0,1.7-0.2,2.4-0.7v-4.7c-0.8-0.5-1.6-0.7-2.4-0.7c-0.9,0-1.6,0.3-2.1,0.9c-0.5,0.6-0.8,1.3-0.8,2.2
			C267.3,33.9,267.6,34.7,268.1,35.2z"/>
		<path fill="#FFFFFF" d="M280.4,26.2h4.7v7.4c0,0.8,0.2,1.4,0.5,1.8c0.3,0.4,1,0.6,1.8,0.6c0.7,0,1.3-0.1,1.8-0.4v-9.4h4.7v13.6
			h-4.4v-1.1c-0.3,0.4-0.9,0.8-1.6,1c-0.7,0.3-1.4,0.4-2.1,0.4c-1.9,0-3.2-0.5-4.1-1.6c-0.9-1-1.3-2.5-1.3-4.4V26.2z"/>
		<path fill="#FFFFFF" d="M311.2,33.1c0,0.4,0,0.9-0.1,1.3h-9.9c0.6,1.3,1.9,1.9,4.1,1.9c1.5,0,2.9-0.3,4.4-0.8v3.8
			c-1.4,0.6-3,0.9-4.8,0.9c-2.5,0-4.5-0.6-6-1.9s-2.2-3-2.2-5.2c0-2,0.7-3.7,2.1-5.1c1.4-1.3,3.1-2,5.2-2c2.1,0,3.9,0.7,5.2,2
			S311.2,31,311.2,33.1z M303.9,29.8c-1.4,0-2.4,0.6-2.8,1.9h5.5C306.2,30.4,305.3,29.8,303.9,29.8z"/>
		<path fill="#FFFFFF" d="M332.2,33.1c0,0.4,0,0.9-0.1,1.3h-9.9c0.6,1.3,1.9,1.9,4.1,1.9c1.5,0,2.9-0.3,4.4-0.8v3.8
			c-1.4,0.6-3,0.9-4.8,0.9c-2.5,0-4.5-0.6-6-1.9s-2.2-3-2.2-5.2c0-2,0.7-3.7,2.1-5.1c1.4-1.3,3.1-2,5.2-2c2.1,0,3.9,0.7,5.2,2
			S332.2,31,332.2,33.1z M324.9,29.8c-1.4,0-2.4,0.6-2.8,1.9h5.5C327.2,30.4,326.3,29.8,324.9,29.8z"/>
		<path fill="#FFFFFF" d="M335.6,26.2v-3.4h4.7v3.4h3.6V30h-3.6v3.8c0,0.8,0.2,1.4,0.6,1.7c0.4,0.3,0.9,0.5,1.7,0.5
			c0.4,0,0.9,0,1.4-0.1v3.9c-0.7,0.1-1.6,0.2-2.5,0.2c-1.7,0-3.1-0.4-4.2-1.2c-1.1-0.8-1.6-2.1-1.6-3.8v-5h-2v-3.8H335.6z"/>
		<path fill="#FFFFFF" d="M351.9,27.2c1-0.8,2.3-1.3,4-1.3c1.8,0,3.4,0.3,4.8,0.8v3.6c-1.7-0.5-3.3-0.8-4.8-0.8
			c-0.9,0-1.3,0.2-1.3,0.6c0,0.2,0.1,0.3,0.3,0.4c0.2,0.1,0.6,0.2,1.2,0.4l1.2,0.3c1.5,0.3,2.6,0.8,3.3,1.4c0.7,0.6,1,1.6,1,2.8
			c0,1.4-0.5,2.5-1.6,3.4c-1,0.9-2.6,1.3-4.5,1.3c-1.8,0-3.4-0.3-4.8-0.9v-3.8c1.7,0.7,3.4,1.1,5,1.1c1.1,0,1.6-0.2,1.6-0.7
			c0-0.2-0.1-0.4-0.3-0.5c-0.2-0.1-0.6-0.2-1.2-0.3l-1.3-0.3c-2.8-0.6-4.2-2-4.2-4.1C350.4,29.1,350.9,28,351.9,27.2z"/>
		<path fill="#FFFFFF" d="M362.5,26.2h5.1l3,6.8l3-6.8h5l-9.2,19.2h-5l3.7-7.5L362.5,26.2z"/>
		<path fill="#FFFFFF" d="M380.8,27.2c1-0.8,2.3-1.3,4-1.3c1.8,0,3.4,0.3,4.8,0.8v3.6c-1.7-0.5-3.3-0.8-4.8-0.8
			c-0.9,0-1.3,0.2-1.3,0.6c0,0.2,0.1,0.3,0.3,0.4c0.2,0.1,0.6,0.2,1.2,0.4l1.2,0.3c1.5,0.3,2.6,0.8,3.3,1.4c0.7,0.6,1,1.6,1,2.8
			c0,1.4-0.5,2.5-1.6,3.4c-1,0.9-2.6,1.3-4.5,1.3c-1.8,0-3.4-0.3-4.8-0.9v-3.8c1.7,0.7,3.4,1.1,5,1.1c1.1,0,1.6-0.2,1.6-0.7
			c0-0.2-0.1-0.4-0.3-0.5c-0.2-0.1-0.6-0.2-1.2-0.3l-1.3-0.3c-2.8-0.6-4.2-2-4.2-4.1C379.3,29.1,379.8,28,380.8,27.2z"/>
		<path fill="#FFFFFF" d="M393.9,26.2v-3.4h4.7v3.4h3.6V30h-3.6v3.8c0,0.8,0.2,1.4,0.6,1.7c0.4,0.3,0.9,0.5,1.7,0.5
			c0.4,0,0.9,0,1.4-0.1v3.9c-0.7,0.1-1.6,0.2-2.5,0.2c-1.7,0-3.1-0.4-4.2-1.2c-1.1-0.8-1.6-2.1-1.6-3.8v-5h-2v-3.8H393.9z"/>
		<path fill="#FFFFFF" d="M418.8,33.1c0,0.4,0,0.9-0.1,1.3h-9.9c0.6,1.3,1.9,1.9,4.1,1.9c1.5,0,2.9-0.3,4.4-0.8v3.8
			c-1.4,0.6-3,0.9-4.8,0.9c-2.5,0-4.5-0.6-6-1.9s-2.2-3-2.2-5.2c0-2,0.7-3.7,2.1-5.1c1.4-1.3,3.1-2,5.2-2c2.1,0,3.9,0.7,5.2,2
			S418.8,31,418.8,33.1z M412.4,20.5l0.8,4.2h-3.5l-2.2-4.2H412.4z M411.5,29.8c-1.4,0-2.4,0.6-2.8,1.9h5.5
			C413.8,30.4,412.9,29.8,411.5,29.8z"/>
		<path fill="#FFFFFF" d="M425.8,26.2v1.3c0.3-0.5,0.8-0.8,1.6-1.1s1.5-0.4,2.2-0.4c2,0,3.4,0.6,4.3,1.8c0.3-0.5,0.9-1,1.7-1.3
			c0.8-0.3,1.6-0.5,2.4-0.5c1.9,0,3.4,0.5,4.5,1.6c1.1,1.1,1.6,2.5,1.6,4.3v8h-4.7V33c0-1.1-0.2-1.9-0.5-2.3c-0.3-0.5-1-0.7-1.8-0.7
			c-0.7,0-1.4,0.2-2,0.5c0.1,0.4,0.1,0.9,0.1,1.4v8h-4.7V33c0-1.1-0.2-1.9-0.5-2.3c-0.3-0.5-1-0.7-1.8-0.7c-0.7,0-1.3,0.2-1.9,0.5
			v9.4h-4.7V26.2H425.8z"/>
		<path fill="#FFFFFF" d="M461.1,33.1c0,0.4,0,0.9-0.1,1.3h-9.9c0.6,1.3,1.9,1.9,4.1,1.9c1.5,0,2.9-0.3,4.4-0.8v3.8
			c-1.4,0.6-3,0.9-4.8,0.9c-2.5,0-4.5-0.6-6-1.9s-2.2-3-2.2-5.2c0-2,0.7-3.7,2.1-5.1c1.4-1.3,3.1-2,5.2-2c2.1,0,3.9,0.7,5.2,2
			S461.1,31,461.1,33.1z M453.8,29.8c-1.4,0-2.4,0.6-2.8,1.9h5.5C456.1,30.4,455.2,29.8,453.8,29.8z"/>
		<path fill="#FFFFFF" d="M464.5,27.2c1-0.8,2.3-1.3,4-1.3c1.8,0,3.4,0.3,4.8,0.8v3.6c-1.7-0.5-3.3-0.8-4.8-0.8
			c-0.9,0-1.3,0.2-1.3,0.6c0,0.2,0.1,0.3,0.3,0.4c0.2,0.1,0.6,0.2,1.2,0.4l1.2,0.3c1.5,0.3,2.6,0.8,3.3,1.4c0.7,0.6,1,1.6,1,2.8
			c0,1.4-0.5,2.5-1.6,3.4c-1,0.9-2.6,1.3-4.5,1.3c-1.8,0-3.4-0.3-4.8-0.9v-3.8c1.7,0.7,3.4,1.1,5,1.1c1.1,0,1.6-0.2,1.6-0.7
			c0-0.2-0.1-0.4-0.3-0.5c-0.2-0.1-0.6-0.2-1.2-0.3l-1.3-0.3c-2.8-0.6-4.2-2-4.2-4.1C463,29.1,463.5,28,464.5,27.2z"/>
		<path fill="#FFFFFF" d="M136,55c1.2-1.3,2.8-2,4.8-2c1.5,0,2.6,0.3,3.4,1v-6.4h4.7v19.3h-4.4v-1.1c-0.7,1-1.9,1.4-3.7,1.4
			c-2,0-3.6-0.7-4.8-2s-1.8-3-1.8-5.1C134.1,58,134.7,56.3,136,55z M139.7,62.2c0.5,0.6,1.2,0.9,2.1,0.9c0.8,0,1.6-0.2,2.4-0.7v-4.7
			c-0.7-0.5-1.6-0.7-2.4-0.7c-0.9,0-1.6,0.3-2.1,0.9c-0.5,0.6-0.8,1.3-0.8,2.2C138.9,60.9,139.1,61.7,139.7,62.2z"/>
		<path fill="#FFFFFF" d="M166.1,60.1c0,0.4,0,0.9-0.1,1.3h-9.9c0.6,1.3,1.9,1.9,4.1,1.9c1.5,0,2.9-0.3,4.4-0.8v3.8
			c-1.4,0.6-3,0.9-4.8,0.9c-2.5,0-4.6-0.6-6-1.9s-2.2-3-2.2-5.2c0-2,0.7-3.7,2.1-5.1s3.1-2,5.2-2s3.9,0.7,5.2,2S166.1,58,166.1,60.1
			z M158.8,56.8c-1.4,0-2.4,0.6-2.8,1.9h5.5C161.1,57.4,160.2,56.8,158.8,56.8z"/>
		<path fill="#FFFFFF" d="M174.6,55c1.4-1.3,3.3-2,5.5-2c1.7,0,3.2,0.3,4.6,0.8v4.1c-1.3-0.6-2.5-0.8-3.7-0.8
			c-1.2,0-2.1,0.3-2.8,0.9s-1,1.3-1,2.2c0,0.9,0.3,1.7,1,2.2c0.6,0.6,1.6,0.8,2.8,0.8c1.1,0,2.4-0.3,3.7-0.8v4.1
			c-1.4,0.5-2.9,0.8-4.6,0.8c-2.2,0-4.1-0.7-5.5-2c-1.4-1.4-2.2-3-2.2-5.1S173.2,56.3,174.6,55z"/>
		<path fill="#FFFFFF" d="M186.8,60c0-2,0.7-3.7,2.2-5.1c1.5-1.4,3.3-2,5.4-2c2.2,0,4,0.7,5.5,2c1.5,1.4,2.2,3,2.2,5.1
			c0,2-0.7,3.7-2.2,5.1c-1.5,1.4-3.3,2-5.5,2c-2.2,0-4-0.7-5.4-2C187.5,63.7,186.8,62,186.8,60z M192.4,62.2
			c0.5,0.6,1.2,0.9,2.1,0.9c0.9,0,1.6-0.3,2.1-0.9c0.5-0.6,0.8-1.3,0.8-2.2c0-0.9-0.3-1.6-0.8-2.2c-0.5-0.6-1.3-0.9-2.1-0.9
			c-0.9,0-1.6,0.3-2.1,0.9c-0.5,0.6-0.8,1.3-0.8,2.2C191.6,60.9,191.8,61.7,192.4,62.2z"/>
		<path fill="#FFFFFF" d="M209.1,53.2v1.3c0.3-0.5,0.8-0.8,1.6-1.1s1.5-0.4,2.2-0.4c2,0,3.4,0.6,4.3,1.8c0.3-0.5,0.9-1,1.7-1.3
			c0.8-0.3,1.6-0.5,2.4-0.5c1.9,0,3.4,0.5,4.5,1.6c1.1,1.1,1.6,2.5,1.6,4.3v8h-4.7V60c0-1.1-0.2-1.9-0.5-2.3c-0.3-0.5-1-0.7-1.8-0.7
			c-0.7,0-1.4,0.2-2,0.5c0.1,0.4,0.1,0.9,0.1,1.4v8h-4.7V60c0-1.1-0.2-1.9-0.5-2.3c-0.3-0.5-1-0.7-1.8-0.7c-0.7,0-1.3,0.2-1.9,0.5
			v9.4h-4.7V53.2H209.1z"/>
		<path fill="#FFFFFF" d="M234.9,53.2v1.3c0.3-0.5,0.8-0.8,1.6-1.1s1.5-0.4,2.2-0.4c2,0,3.4,0.6,4.3,1.8c0.3-0.5,0.9-1,1.7-1.3
			c0.8-0.3,1.6-0.5,2.4-0.5c1.9,0,3.4,0.5,4.5,1.6c1.1,1.1,1.6,2.5,1.6,4.3v8h-4.7V60c0-1.1-0.2-1.9-0.5-2.3c-0.3-0.5-1-0.7-1.8-0.7
			c-0.7,0-1.4,0.2-2,0.5c0.1,0.4,0.1,0.9,0.1,1.4v8h-4.7V60c0-1.1-0.2-1.9-0.5-2.3c-0.3-0.5-1-0.7-1.8-0.7c-0.7,0-1.3,0.2-1.9,0.5
			v9.4h-4.7V53.2H234.9z"/>
		<path fill="#FFFFFF" d="M256,53.2h4.7v7.4c0,0.8,0.2,1.4,0.5,1.8c0.3,0.4,1,0.6,1.8,0.6c0.7,0,1.3-0.1,1.8-0.4v-9.4h4.7v13.6h-4.4
			v-1.1c-0.3,0.4-0.9,0.8-1.6,1c-0.7,0.3-1.4,0.4-2.1,0.4c-1.9,0-3.2-0.5-4.1-1.6c-0.9-1-1.3-2.5-1.3-4.4V53.2z"/>
		<path fill="#FFFFFF" d="M277.3,53.2v1.3c0.3-0.5,0.8-0.8,1.6-1.1s1.5-0.4,2.2-0.4c1.9,0,3.2,0.5,4.1,1.6c0.9,1,1.3,2.5,1.3,4.4v8
			h-4.7V60c0-1.1-0.2-1.9-0.5-2.3c-0.3-0.5-1-0.7-1.8-0.7c-0.7,0-1.3,0.2-1.9,0.5v9.4h-4.7V53.2H277.3z"/>
		<path fill="#FFFFFF" d="M289.2,49.1c0-0.7,0.3-1.3,0.8-1.8c0.5-0.5,1.2-0.8,1.9-0.8c0.7,0,1.4,0.3,1.9,0.8
			c0.5,0.5,0.8,1.1,0.8,1.8c0,0.7-0.3,1.3-0.8,1.8c-0.5,0.5-1.2,0.8-1.9,0.8c-0.7,0-1.4-0.3-1.9-0.8
			C289.5,50.4,289.2,49.8,289.2,49.1z M289.6,66.9V53.2h4.7v13.6H289.6z"/>
		<path fill="#FFFFFF" d="M298.9,55c1.4-1.3,3.3-2,5.5-2c1.7,0,3.2,0.3,4.6,0.8v4.1c-1.3-0.6-2.5-0.8-3.7-0.8
			c-1.2,0-2.1,0.3-2.8,0.9c-0.6,0.6-1,1.3-1,2.2c0,0.9,0.3,1.7,1,2.2c0.6,0.6,1.6,0.8,2.8,0.8c1.1,0,2.4-0.3,3.7-0.8v4.1
			c-1.4,0.5-2.9,0.8-4.6,0.8c-2.2,0-4.1-0.7-5.5-2s-2.2-3-2.2-5.1S297.5,56.3,298.9,55z"/>
		<path fill="#FFFFFF" d="M313.1,55c1.2-1.3,2.8-2,4.8-2c1.7,0,2.9,0.4,3.6,1.3v-1.1h4.4v13.6h-4.4v-1.1c-0.7,0.9-1.9,1.3-3.6,1.3
			c-2,0-3.6-0.7-4.8-2c-1.2-1.4-1.8-3-1.8-5.1C311.3,58,311.9,56.3,313.1,55z M316.8,62.2c0.5,0.6,1.2,0.9,2.1,0.9
			c0.8,0,1.6-0.2,2.4-0.7v-4.7c-0.7-0.5-1.6-0.7-2.4-0.7c-0.9,0-1.6,0.3-2.1,0.9c-0.5,0.6-0.8,1.3-0.8,2.2
			C316,60.9,316.3,61.7,316.8,62.2z"/>
		<path fill="#FFFFFF" d="M330.3,53.2v-3.4h4.7v3.4h3.6V57H335v3.8c0,0.8,0.2,1.4,0.6,1.7c0.4,0.3,0.9,0.5,1.7,0.5
			c0.4,0,0.9,0,1.4-0.1v3.9c-0.7,0.1-1.6,0.2-2.5,0.2c-1.7,0-3.1-0.4-4.2-1.2c-1.1-0.8-1.6-2.1-1.6-3.8v-5h-2v-3.8H330.3z"/>
		<path fill="#FFFFFF" d="M341,49.1c0-0.7,0.3-1.3,0.8-1.8c0.5-0.5,1.2-0.8,1.9-0.8c0.7,0,1.4,0.3,1.9,0.8c0.5,0.5,0.8,1.1,0.8,1.8
			c0,0.7-0.3,1.3-0.8,1.8c-0.5,0.5-1.2,0.8-1.9,0.8c-0.7,0-1.4-0.3-1.9-0.8C341.3,50.4,341,49.8,341,49.1z M341.4,66.9V53.2h4.7
			v13.6H341.4z"/>
		<path fill="#FFFFFF" d="M348.5,60c0-2,0.7-3.7,2.2-5.1c1.5-1.4,3.3-2,5.4-2c2.2,0,4,0.7,5.5,2c1.5,1.4,2.2,3,2.2,5.1
			c0,2-0.7,3.7-2.2,5.1c-1.5,1.4-3.3,2-5.5,2c-2.2,0-4-0.7-5.4-2C349.3,63.7,348.5,62,348.5,60z M354.1,62.2
			c0.5,0.6,1.2,0.9,2.1,0.9c0.9,0,1.6-0.3,2.1-0.9c0.5-0.6,0.8-1.3,0.8-2.2c0-0.9-0.3-1.6-0.8-2.2c-0.5-0.6-1.3-0.9-2.1-0.9
			c-0.9,0-1.6,0.3-2.1,0.9c-0.5,0.6-0.8,1.3-0.8,2.2C353.3,60.9,353.6,61.7,354.1,62.2z"/>
		<path fill="#FFFFFF" d="M370.8,53.2v1.3c0.3-0.5,0.8-0.8,1.6-1.1s1.5-0.4,2.2-0.4c1.9,0,3.2,0.5,4.1,1.6c0.9,1,1.3,2.5,1.3,4.4v8
			h-4.7V60c0-1.1-0.2-1.9-0.5-2.3c-0.3-0.5-1-0.7-1.8-0.7c-0.7,0-1.3,0.2-1.9,0.5v9.4h-4.7V53.2H370.8z"/>
		<path fill="#FFFFFF" d="M397.1,66.9h-4.9V48.1h4.9V66.9z"/>
		<path fill="#FFFFFF" d="M400.6,53.6c0-1.8,0.6-3.3,1.9-4.3c1.3-1.1,2.9-1.6,5-1.6c2.2,0,4.3,0.4,6.2,1.1v4.3
			c-2.1-0.8-4.1-1.3-5.9-1.3c-1.6,0-2.5,0.4-2.5,1.3c0,0.4,0.2,0.8,0.6,1c0.4,0.2,1,0.5,2,0.7l1.4,0.4c1.8,0.5,3.2,1.2,4.1,2.1
			c0.9,0.9,1.4,2.1,1.4,3.6c0,2-0.7,3.5-2.1,4.6c-1.4,1.1-3.3,1.7-5.6,1.7c-2.1,0-4.1-0.4-6-1.1v-4.3c2.1,0.8,4.1,1.3,6,1.3
			c1,0,1.7-0.1,2.2-0.4c0.5-0.3,0.8-0.7,0.8-1.2c0-0.5-0.2-0.8-0.5-1s-1-0.4-2-0.7l-1.5-0.4C402.4,58.2,400.6,56.4,400.6,53.6z"/>
		<path fill="#FFFFFF" d="M419.6,50.5c1.9-1.9,4.4-2.8,7.6-2.8c2.4,0,4.5,0.4,6.3,1.1v4.6c-1.9-0.7-3.8-1.1-5.7-1.1
			c-1.9,0-3.3,0.5-4.4,1.5c-1,1-1.6,2.2-1.6,3.8c0,1.5,0.5,2.8,1.6,3.8c1,1,2.5,1.5,4.4,1.5c2,0,3.9-0.4,5.7-1.1v4.6
			c-1.8,0.7-3.9,1.1-6.3,1.1c-3.1,0-5.7-0.9-7.6-2.8c-1.9-1.9-2.9-4.2-2.9-7S417.7,52.4,419.6,50.5z"/>
	</g>
</g>
<g>
	<path fill="#DD0069" d="M453.4,65.5c0,0.9,0.7,1.6,1.6,1.6h17.7c0.9,0,1.6-0.7,1.6-1.6V47.9c0-0.9-0.7-1.6-1.6-1.6H455
		c-0.9,0-1.6,0.7-1.6,1.6V65.5L453.4,65.5z"/>
	<path fill="#FFFFFF" d="M465,52.9h-2.4c-0.1,1.4-0.2,2.6-0.3,3.5c-0.1,0.9-0.2,1.6-0.3,2.2c-0.1,0.6-0.2,1.2-0.3,1.8
		c-0.1,0.4-0.2,0.7-0.4,1c-0.2,0.2-0.4,0.4-0.8,0.5c-0.3,0.1-0.6,0-0.8-0.2c-0.3-0.2-0.4-0.4-0.5-0.6c0-0.2-0.1-0.3,0-0.5
		c0-0.1,0.1-0.2,0.1-0.4c0.1-0.1,0.1-0.2,0.2-0.3c0.1-0.1,0.1-0.2,0.2-0.3c0,0,0.1-0.2,0.4-0.4c0.2-0.3,0.4-0.5,0.5-0.7
		c0.1-0.2,0.4-0.7,0.5-1.3c0.1-0.6,0.4-2.6,0.4-4.3h-1c-0.3,0-0.6,0.1-0.8,0.2c-0.3,0.1-0.5,0.4-0.6,0.5c-0.1,0.1-0.4,0.6-0.5,0.7
		c-0.1,0.1-0.2,0.3-0.3,0.3c-0.1,0-0.1-0.2-0.1-0.3c0-0.1,0.2-0.6,0.4-1c0.2-0.4,0.4-0.7,0.6-1.1c0.2-0.3,0.5-0.5,0.8-0.7
		c0.3-0.2,0.7-0.3,1.2-0.3h7.4c0.1,0,0.8,0.1,0.8,0.9c0,0.8-0.7,0.9-0.8,0.9h-2.1c-0.2,1.7-0.3,3.4-0.3,5.1c0,0.3,0.1,0.6,0.2,0.9
		c0.1,0.3,0.2,0.5,0.4,0.7c0.2,0.2,0.4,0.3,0.7,0.4c0.3,0.1,0.6,0,0.9-0.3c0.2-0.1,0.3-0.3,0.4-0.4c0.1-0.2,0.1-0.3,0.1-0.5
		c0-0.1,0.1-0.4,0.1-0.4c0,0,0-0.2,0.2-0.2c0.2,0,0.2,0.2,0.2,0.4c0,0.2-0.1,0.9-0.3,1.4c-0.2,0.5-0.4,0.8-0.6,1.1
		c-0.2,0.3-0.5,0.5-0.7,0.6c-0.3,0.2-0.5,0.2-0.9,0.3c-0.3,0-0.6,0-0.9-0.2c-0.5-0.3-0.8-0.9-1-1.6c-0.1-0.4-0.2-1-0.2-1.7
		c0-0.7,0-1.4,0.1-2L465,52.9L465,52.9z"/>
</g>
</svg>
